<svg version="1" xmlns="http://www.w3.org/2000/svg" viewBox="0 0 2810 1460"><path d="M20 1361v-101h49c95 0 130 27 131 101 0 73-22 92-109 97l-71 4v-101zm118 53c16-11 22-25 22-53 0-48-14-61-67-61H50v130h33c18 0 43-7 55-16zm94 34c-34-34 3-78 64-78 16 0 24-5 22-12-7-20-40-22-54-3-9 12-17 14-30 7-15-9-15-11 5-31 24-24 78-28 103-8 11 8 17 33 20 73l4 62-61 1c-35 0-66-4-73-11zm89-34c11-14 9-15-21-12-18 2-35 9-38 16-6 18 43 15 59-4zm79-13c0-38-5-61-12-65-10-5-10-7 0-12 6-3 12-14 12-24 0-29 21-38 88-38 44 0 62 4 62 13 0 7-9 15-20 18-23 6-27 27-5 27 8 0 15 5 15 10 0 6-7 10-15 10-12 0-15 13-15 60s-3 60-15 60-15-13-15-60c0-53-2-60-20-60s-20 7-20 60-2 60-20 60-20-7-20-59zm80-100c0-14-5-18-20-14-11 3-20 12-20 19 0 8 9 14 20 14 13 0 20-7 20-19zm94 151c-16-11-34-48-34-72 0-32 44-70 80-70 66 0 105 85 60 130-20 20-83 28-106 12zm74-34c29-29 3-84-35-76-25 5-40 52-23 72 15 19 41 21 58 4z"/><path d="M726 1438c-40-57-4-133 60-126 32 4 34 2 34-24 0-18 5-28 15-28 12 0 15 18 15 100v100h-54c-45 0-58-4-70-22zm84-23c15-18 5-64-15-72-9-3-22 0-30 7-15 13-21 61-8 73 11 12 40 8 53-8zm70-25c0-63 2-70 20-70s20 7 20 70-2 70-20 70-20-7-20-70zm70-30c0-93 1-100 20-100s20 7 20 100-1 100-20 100-20-7-20-100zm160 0c0-82 3-100 15-100s15 18 15 100-3 100-15 100-15-18-15-100zm70 30c0-49 4-70 13-70 6 0 28-3 48-6 55-9 79 19 79 91 0 48-2 55-20 55s-20-7-20-54c0-56-12-72-45-60-11 5-15 21-15 60 0 47-2 54-20 54s-20-7-20-70zm172 58c-7-7-12-18-12-25 0-15 26-18 35-3 8 12 55 13 55 1 0-5-19-15-42-23-33-10-44-19-46-37-5-29 20-51 58-51 27 0 70 25 70 41 0 12-37 12-45-1-8-12-45-13-45-1 0 5 19 15 43 23 45 14 60 45 37 74-15 17-91 19-108 2zm155 5c-4-3-7-30-7-59 0-32-5-54-12-57-10-4-10-8-2-14 7-4 13-17 15-28 6-31 39-32 39-2 0 14 6 28 13 31 10 5 10 7 0 12-15 6-18 94-4 94 5 0 11 7 15 15 4 11-2 15-23 15-15 0-31-3-34-7zm73-63c0-56 3-70 15-70s15 14 15 70-3 70-15 70-15-14-15-70zm77 63c-4-3-7-30-7-59 0-32-5-54-12-57-10-4-10-8-2-14 7-4 13-17 15-27 6-30 29-32 29-2 0 16 6 26 15 26 8 0 15 5 15 10 0 6-7 10-15 10-11 0-15 11-15 40 0 27 5 43 15 46 24 9 18 34-8 34-13 0-27-3-30-7zm80 0c-4-3-7-35-7-70 0-48 3-63 14-63s16 15 18 53c3 48 5 52 28 52s25-4 28-52c3-45 6-53 23-53s19 7 19 69v68l-58 2c-32 0-62-2-65-6zm170 0c-4-3-7-30-7-59 0-32-5-54-12-57-10-4-10-8-2-14 7-4 13-17 15-27 6-30 29-32 29-2 0 16 6 26 15 26 8 0 15 5 15 10 0 6-7 10-15 10-11 0-15 12-15 45s4 45 15 45c8 0 15 7 15 15 0 15-40 21-53 8zm79-9c-10-9-16-33-16-59 0-50 24-75 73-75 33 0 77 40 77 70 0 18-6 20-56 20-40 0-55 3-52 13 6 17 37 21 63 7 34-18 48-9 30 18-13 17-26 22-60 22-26 0-50-6-59-16zm82-90c-10-10-23-14-37-9-34 10-24 25 16 25 34 0 36-1 21-16zm162 86c-28-28-26-75 5-105 33-33 78-33 112 1 21 21 24 32 19 62-3 20-13 43-23 49-27 20-90 16-113-7zm90-26c17-20 2-67-23-72-24-5-47 16-47 42 0 42 45 61 70 30zm70-13c0-38-4-61-12-64-9-4-10-8-3-14 6-4 16-20 22-35 10-22 19-28 43-28 34 0 42 25 10 33-23 6-27 27-5 27 8 0 15 5 15 10 0 6-7 10-15 10-12 0-15 13-15 60 0 53-2 60-20 60s-20-7-20-59zm170-41c0-93 1-100 20-100s20 7 20 100-1 100-20 100-20-7-20-100zm130 20v-80h-35c-28 0-35-4-35-20 0-19 7-20 90-20s90 1 90 20c0 16-7 20-35 20h-35v80c0 73-2 80-20 80s-20-7-20-80zM880 1280c0-13 7-20 20-20s20 7 20 20-7 20-20 20-20-7-20-20zm700 0c0-11 7-20 15-20s15 9 15 20-7 20-15 20-15-9-15-20zM0 1120c0-20 7-20 1395-20s1395 0 1395 20-7 20-1395 20S0 1140 0 1120zm1153-148l-183-67V453c0-365 3-453 13-453 7 0 92 29 188 64l174 64 3 456c1 251-1 456-5 455-5 0-90-30-190-67zm289-387l3-457 175-64c96-35 181-64 188-64 9 0 12 97 12 453v453l-177 64c-98 35-184 65-191 68-10 3-12-89-10-453zM0 450V0h288c324 0 370 7 459 65 94 62 147 160 166 304 28 224-42 400-190 478-89 47-137 53-443 53H0V450zm528 214c15-11 37-40 50-65 21-40 23-55 20-154-5-179-46-226-200-233l-78-4v484l90-4c70-3 96-9 118-24zm1662-99V230h-300V0h920v230h-300v670h-320V565z"/><path d="M0 1120c0-20 7-20 1395-20s1395 0 1395 20-7 20-1395 20S0 1140 0 1120zm1153-148l-183-67V453c0-365 3-453 13-453 7 0 92 29 188 64l174 64 3 456c1 251-1 456-5 455-5 0-90-30-190-67zm289-387l3-457 175-64c96-35 181-64 188-64 9 0 12 97 12 453v453l-177 64c-98 35-184 65-191 68-10 3-12-89-10-453zM0 450V0h288c324 0 370 7 459 65 94 62 147 160 166 304 28 224-42 400-190 478-89 47-137 53-443 53H0V450zm528 214c15-11 37-40 50-65 21-40 23-55 20-154-5-179-46-226-200-233l-78-4v484l90-4c70-3 96-9 118-24zm1662-99V230h-300V0h920v230h-300v670h-320V565z" fill="#0066b3"/><path d="M0 1120c0-20 7-20 1395-20s1395 0 1395 20-7 20-1395 20S0 1140 0 1120zm1442-535l3-457 175-64c96-35 181-64 188-64 9 0 12 97 12 453v453l-177 64c-98 35-184 65-191 68-10 3-12-89-10-453zm748-20V230h-300V0h920v230h-300v670h-320V565z" fill="#22b24c"/><path d="M0 1120c0-20 7-20 1395-20s1395 0 1395 20-7 20-1395 20S0 1140 0 1120z" fill="#ed1a3b"/></svg>